HIERARCHY
ROOT Hips
{
	OFFSET 0.000000 0.000000 0.000000
	CHANNELS 6 Xposition Yposition Zposition Zrotation Yrotation Xrotation 
	JOINT LHipJoint
	{
		OFFSET 0.000000 0.000000 0.000000
		CHANNELS 3 Zrotation Yrotation Xrotation
		JOINT LeftUpLeg
		{
			OFFSET 1.363060 -1.794630 0.839290
			CHANNELS 3 Zrotation Yrotation Xrotation
			JOINT LeftLeg
			{
				OFFSET 2.448110 -6.726130 0.000000
				CHANNELS 3 Zrotation Yrotation Xrotation
				JOINT LeftFoot
				{
					OFFSET 2.562200 -7.039590 0.000000
					CHANNELS 3 Zrotation Yrotation Xrotation
					JOINT LeftToeBase
					{
						OFFSET 0.157640 -0.433110 2.322550
						CHANNELS 3 Zrotation Yrotation Xrotation
						End Site
						{
							OFFSET 0.000000 0.000000 0.000000
						}
					}
				}
			}
		}
	}
	JOINT RHipJoint
	{
		OFFSET 0.000000 0.000000 0.000000
		CHANNELS 3 Zrotation Yrotation Xrotation
		JOINT RightUpLeg
		{
			OFFSET -1.305520 -1.794630 0.839290
			CHANNELS 3 Zrotation Yrotation Xrotation
			JOINT RightLeg
			{
				OFFSET -2.542530 -6.985550 0.000000
				CHANNELS 3 Zrotation Yrotation Xrotation
				JOINT RightFoot
				{
					OFFSET -2.568260 -7.056230 0.000000
					CHANNELS 3 Zrotation Yrotation Xrotation
					JOINT RightToeBase
					{
						OFFSET -0.164730 -0.452590 2.363150
						CHANNELS 3 Zrotation Yrotation Xrotation
						End Site
						{
							OFFSET 0.000000 0.000000 0.000000
						}
					}
				}
			}
		}
	}
	JOINT LowerBack
	{
		OFFSET 0.000000 0.000000 0.000000
		CHANNELS 3 Zrotation Yrotation Xrotation
		JOINT Spine
		{
			OFFSET 0.028270 2.035590 -0.193380
			CHANNELS 3 Zrotation Yrotation Xrotation
			JOINT Spine1
			{
				OFFSET 0.056720 2.048850 -0.042750
				CHANNELS 3 Zrotation Yrotation Xrotation
				JOINT Neck
				{
					OFFSET 0.000000 0.000000 0.000000
					CHANNELS 3 Zrotation Yrotation Xrotation
					JOINT Neck1
					{
						OFFSET -0.054170 1.746240 0.172020
						CHANNELS 3 Zrotation Yrotation Xrotation
						JOINT Head
						{
							OFFSET 0.104070 1.761360 -0.123970
							CHANNELS 3 Zrotation Yrotation Xrotation
							End Site
							{
								OFFSET 0.000000 0.000000 0.000000
							}
						}
					}
				}
				JOINT LeftShoulder
				{
					OFFSET 0.000000 0.000000 0.000000
					CHANNELS 3 Zrotation Yrotation Xrotation
					JOINT LeftArm
					{
						OFFSET 3.362410 1.200890 -0.311210
						CHANNELS 3 Zrotation Yrotation Xrotation
						JOINT LeftForeArm
						{
							OFFSET 4.983000 -0.000000 -0.000000
							CHANNELS 3 Zrotation Yrotation Xrotation
							JOINT LeftHand
							{
								OFFSET 3.483560 -0.000000 -0.000000
								CHANNELS 3 Zrotation Yrotation Xrotation
								JOINT LeftFingerBase
								{
									OFFSET 0.000000 0.000000 0.000000
									CHANNELS 3 Zrotation Yrotation Xrotation
									JOINT LeftHandIndex1
									{
										OFFSET 0.715260 -0.000000 -0.000000
										CHANNELS 3 Zrotation Yrotation Xrotation
										End Site
										{
											OFFSET 0.000000 0.000000 0.000000
										}
									}
								}
								JOINT LThumb
								{
									OFFSET 0.000000 0.000000 0.000000
									CHANNELS 3 Zrotation Yrotation Xrotation
									End Site
									{
										OFFSET 0.000000 0.000000 0.000000
									}
								}
							}
						}
					}
				}
				JOINT RightShoulder
				{
					OFFSET 0.000000 0.000000 0.000000
					CHANNELS 3 Zrotation Yrotation Xrotation
					JOINT RightArm
					{
						OFFSET -3.136600 1.374050 -0.404650
						CHANNELS 3 Zrotation Yrotation Xrotation
						JOINT RightForeArm
						{
							OFFSET -5.241900 -0.000000 -0.000000
							CHANNELS 3 Zrotation Yrotation Xrotation
							JOINT RightHand
							{
								OFFSET -3.444170 -0.000000 -0.000000
								CHANNELS 3 Zrotation Yrotation Xrotation
								JOINT RightFingerBase
								{
									OFFSET 0.000000 0.000000 0.000000
									CHANNELS 3 Zrotation Yrotation Xrotation
									JOINT RightHandIndex1
									{
										OFFSET -0.622530 -0.000000 -0.000000
										CHANNELS 3 Zrotation Yrotation Xrotation
										End Site
										{
											OFFSET 0.000000 0.000000 0.000000
										}
									}
								}
								JOINT RThumb
								{
									OFFSET 0.000000 0.000000 0.000000
									CHANNELS 3 Zrotation Yrotation Xrotation
									End Site
									{
										OFFSET 0.000000 0.000000 0.000000
									}
								}
							}
						}
					}
				}
			}
		}
	}
}
MOTION
Frames: 12
Frame Time: 0.008333
0.129767 18.186840 2.554556 1.586889 -4.164753 -1.656318 -3.308347 6.614952 7.072285 -11.717420 -12.396107 2.435453 -1.414924 0.851183 5.719547 -4.484693 17.508824 -2.983757 0.133000 -2.350300 -6.474900 -2.263021 -6.857201 4.190638 18.503935 20.227444 8.085919 -0.010734 -1.875375 10.155816 5.914274 -20.902109 -7.516341 -0.068000 1.683000 -4.630400 2.483720 2.655918 -2.256254 -7.139561 2.929220 15.852082 2.710050 1.782011 -9.525380 -5.089486 -0.642657 -14.753204 10.085138 -1.278860 8.741533 3.703400 -0.209100 3.749500 -4.884602 -0.726064 -0.933375 -79.440296 -6.443981 63.583206 85.944812 -60.092998 -61.090498 0.892947 -0.693346 -13.780741 6.399421 20.118014 2.052800 -7.125000 0.000000 0.000000 -22.506300 49.722000 -2.744100 6.932228 0.557600 -1.691238 73.206709 -4.336162 52.593411 -64.752882 54.325172 -46.973632 0.746933 2.294053 -4.994062 -29.443497 18.176932 -8.918400 7.125000 0.000000 0.000000 -1.858600 -12.169500 -1.425800 
0.129187 18.190512 2.561417 1.620793 -3.635213 -1.455547 -3.332678 6.604113 7.030827 -11.655259 -12.972291 2.343583 -1.420646 0.870189 5.741795 -4.508900 17.581232 -2.892797 0.137500 -2.390000 -6.584700 -2.258633 -6.867810 4.206732 18.497729 20.181280 8.024238 0.000584 -1.840547 10.063807 6.007715 -21.227958 -7.878814 -0.059400 1.572100 -4.324500 2.530194 2.512831 -2.614881 -7.302946 2.718787 15.780108 2.755283 1.666980 -9.285752 -5.044560 -0.620162 -14.767115 10.034056 -1.254085 8.833895 3.689900 -0.196300 3.777400 -4.862468 -0.760753 -0.922123 -79.354360 -6.768252 64.022534 86.353515 -60.125772 -61.462273 0.895707 -0.669803 -14.237985 5.860829 19.973801 1.843400 -7.125000 0.000000 0.000000 -22.922100 49.489700 -2.663300 6.955374 0.594758 -1.658871 73.197945 -3.939924 53.031755 -65.561515 54.586887 -47.865202 0.743879 2.327731 -4.936553 -29.100992 17.845278 -8.603200 7.125000 0.000000 0.000000 -1.670400 -12.629300 -1.265300 
0.128994 18.193410 2.562866 1.636571 -3.183572 -1.387777 -3.352303 6.597568 6.995892 -11.622483 -13.467940 2.276264 -1.413839 0.939789 5.908398 -4.523755 17.619493 -2.846239 0.142800 -2.435500 -6.710800 -2.257084 -6.873262 4.219376 18.525654 20.124327 8.097028 0.014095 -1.797290 9.950350 6.087913 -21.507031 -8.182819 -0.052000 1.472200 -4.049200 2.595835 2.379856 -2.748535 -7.450151 2.537171 15.717150 2.776686 1.567839 -9.180163 -4.985597 -0.620021 -14.714643 9.974581 -1.257791 8.866298 3.670400 -0.200500 3.780400 -4.842727 -0.785082 -0.911992 -79.277773 -7.031393 64.392550 86.928014 -60.176159 -61.962694 0.910975 -0.632939 -14.455074 4.841101 20.271964 1.488100 -7.125000 0.000000 0.000000 -24.005400 49.576100 -2.856000 6.974722 0.621263 -1.632772 73.209463 -3.573471 53.624007 -66.263167 54.803266 -48.611947 0.745656 2.358989 -5.312426 -29.320657 17.925347 -8.708600 7.125000 0.000000 0.000000 -1.826500 -12.543300 -1.386900 
0.127254 18.192637 2.550981 1.610642 -3.270387 -1.511387 -3.348758 6.596197 6.995153 -11.622624 -13.393138 2.252555 -1.399180 1.006851 6.091151 -4.510697 17.570943 -2.914374 0.136700 -2.382900 -6.565200 -2.258673 -6.866943 4.207539 18.563121 20.076487 8.237628 0.027110 -1.750501 9.810809 6.103837 -21.534961 -8.001470 -0.058400 1.559300 -4.289200 2.632777 2.399090 -2.483828 -7.435781 2.576722 15.629781 2.745102 1.594361 -9.350205 -5.019957 -0.644684 -14.710211 9.965855 -1.308463 9.100345 3.669600 -0.222300 3.822300 -4.846932 -0.788434 -0.898611 -79.235268 -7.153927 64.762580 87.548498 -60.239720 -62.497380 0.921727 -0.608132 -14.699447 4.232732 20.520895 1.276000 -7.125000 0.000000 0.000000 -24.689000 49.689900 -3.019200 6.975598 0.618539 -1.607307 73.180202 -3.287929 54.236363 -66.875583 54.997428 -49.248597 0.751371 2.384691 -5.686504 -29.805137 18.155917 -8.990300 7.125000 0.000000 0.000000 -2.143700 -12.245800 -1.641400 
0.121650 18.194763 2.546053 1.511355 -2.784088 -1.439542 -3.338789 6.593710 6.953363 -11.454632 -13.939314 2.153946 -1.391011 1.088184 6.271466 -4.534767 17.635786 -2.869092 0.146800 -2.469200 -6.804300 -2.235792 -6.866281 4.219172 18.665458 19.615398 8.159138 0.040948 -1.688714 9.667482 6.127301 -21.601318 -7.997907 -0.061000 1.593100 -4.382300 2.598048 2.218541 -2.488621 -7.303459 2.322722 15.477570 2.773334 1.477383 -9.360270 -5.090341 -0.653580 -14.766043 9.955405 -1.336594 9.412002 3.675300 -0.230600 3.893000 -4.864525 -0.803974 -0.881099 -79.214601 -7.304439 65.035589 87.916833 -60.273999 -62.824436 0.925808 -0.592359 -14.920221 3.862633 20.539741 1.139200 -7.125000 0.000000 0.000000 -25.033500 49.638500 -3.033100 6.985206 0.626698 -1.569692 73.085006 -2.990594 54.774233 -67.604031 55.232933 -50.020384 0.750293 2.413469 -6.053760 -29.911052 18.190855 -9.035600 7.125000 0.000000 0.000000 -2.225900 -12.221600 -1.705500 
0.118655 18.194860 2.547019 1.444708 -2.526560 -1.440460 -3.326307 6.594151 6.935109 -11.369279 -14.220164 2.132976 -1.382388 1.146980 6.413025 -4.542824 17.652943 -2.855009 0.158400 -2.564300 -7.067900 -2.221635 -6.867488 4.228682 18.740093 19.376501 8.202907 0.051098 -1.648996 9.572730 6.132570 -21.617988 -8.027362 -0.059800 1.577600 -4.339600 2.579188 2.096690 -2.526777 -7.188946 2.149042 15.400108 2.782865 1.396549 -9.335058 -5.185555 -0.623670 -14.719155 9.978665 -1.299011 9.556217 3.694800 -0.211400 3.913600 -4.875824 -0.823506 -0.873279 -79.210583 -7.453397 65.246379 88.235283 -60.299864 -63.103964 0.931751 -0.573487 -15.098682 3.366346 20.629892 0.958100 -7.125000 0.000000 0.000000 -25.530400 49.628800 -3.094300 6.988941 0.642941 -1.538307 72.993916 -2.637432 55.338932 -68.308149 55.462605 -50.790075 0.742168 2.444177 -6.703133 -29.645484 18.151689 -8.919000 7.125000 0.000000 0.000000 -2.071200 -12.325900 -1.582400 
0.118172 18.194473 2.547986 1.407328 -2.411561 -1.470122 -3.321502 6.596718 6.932607 -11.325382 -14.343524 2.146994 -1.377242 1.179170 6.491558 -4.540721 17.641557 -2.868813 0.165300 -2.619700 -7.221600 -2.220210 -6.869098 4.233503 18.795926 19.283202 8.285738 0.058985 -1.620478 9.503496 6.137010 -21.635053 -8.077435 -0.057800 1.551900 -4.268800 2.642621 2.034921 -2.569881 -7.178943 2.064561 15.377710 2.751061 1.351776 -9.293646 -5.300357 -0.589849 -14.616143 10.073845 -1.249802 9.534927 3.731800 -0.188600 3.893700 -4.870061 -0.844754 -0.870749 -79.184371 -7.507949 65.441856 88.770746 -60.342536 -63.552060 0.938246 -0.562005 -15.323081 3.162291 20.853903 0.889500 -7.125000 0.000000 0.000000 -25.835700 49.792100 -3.245300 6.997947 0.659658 -1.517934 72.970057 -2.260897 55.822350 -68.905807 55.652245 -51.440348 0.744270 2.466728 -7.304031 -29.458831 18.345013 -8.964500 7.125000 0.000000 0.000000 -1.946300 -12.148000 -1.494000 
0.118172 18.194666 2.548276 1.473998 -2.254120 -1.504773 -3.340283 6.597591 6.931497 -11.372540 -14.498855 2.192591 -1.375437 1.193020 6.530891 -4.548070 17.666339 -2.884370 0.172100 -2.672600 -7.368400 -2.234028 -6.875713 4.245843 18.746987 19.168793 8.323291 0.063565 -1.605977 9.467766 6.136265 -21.640376 -8.163004 -0.054900 1.511700 -4.158100 2.714649 1.978391 -2.647224 -7.387065 1.996841 15.466014 2.755705 1.305684 -9.218818 -5.267890 -0.576499 -14.650327 10.071191 -1.232816 9.516433 3.730400 -0.180000 3.895500 -4.832761 -0.867286 -0.871528 -79.091805 -7.595347 65.588221 89.382172 -60.387936 -64.057017 0.939951 -0.555878 -15.438898 3.104805 20.991221 0.872700 -7.125000 0.000000 0.000000 -25.960500 49.902700 -3.337400 7.008618 0.681572 -1.500843 73.027254 -1.822186 56.217277 -69.548425 55.852957 -52.124454 0.745045 2.491649 -7.796160 -29.415462 18.509447 -9.037400 7.125000 0.000000 0.000000 -1.917800 -11.989400 -1.478400 
0.118655 18.194377 2.549338 1.585320 -2.107952 -1.558938 -3.365394 6.598985 6.937293 -11.474474 -14.630723 2.271807 -1.374121 1.199562 6.561093 -4.551245 17.677945 -2.907475 0.172000 -2.671700 -7.365900 -2.252938 -6.886268 4.264400 18.646339 19.076483 8.355467 0.065602 -1.601641 9.454605 6.135679 -21.647760 -8.255176 -0.051800 1.468300 -4.038300 2.772971 1.940015 -2.768869 -7.658535 1.956035 15.648449 2.777728 1.267820 -9.101234 -5.158297 -0.583258 -14.678811 9.990870 -1.235960 9.422495 3.702300 -0.185100 3.884500 -4.784075 -0.894139 -0.879579 -78.977991 -7.815107 65.736102 89.827581 -60.413854 -64.436947 0.935233 -0.535044 -15.583226 2.547846 20.796602 0.659600 -7.125000 0.000000 0.000000 -26.348900 49.623900 -3.203200 7.010929 0.714720 -1.485021 73.104828 -1.312702 56.567843 -70.269458 56.079396 -52.896306 0.727962 2.525947 -8.431732 -29.214366 18.366661 -8.881200 7.125000 0.000000 0.000000 -1.813800 -12.206200 -1.390000 
0.118268 18.193700 2.549338 1.545974 -2.052897 -1.615869 -3.363819 6.609025 6.951760 -11.430559 -14.684874 2.314444 -1.373409 1.203659 6.561437 -4.560040 17.708299 -2.859969 0.176100 -2.702900 -7.452700 -2.257294 -6.891871 4.273269 18.714613 19.058510 8.410345 0.065091 -1.597450 9.453162 6.159488 -21.720925 -8.278306 -0.051100 1.459200 -4.013200 2.872290 1.929049 -2.822299 -7.699470 1.949052 15.785207 2.728825 1.254056 -9.046206 -5.153447 -0.608554 -14.698709 9.984955 -1.263600 9.365463 3.698800 -0.200300 3.879000 -4.766198 -0.914725 -0.886266 -78.898086 -7.999718 65.933832 90.235417 -60.437259 -64.783361 0.936486 -0.507049 -15.898987 1.817968 20.790023 0.388700 -7.125000 0.000000 0.000000 -26.994600 49.484400 -3.194500 7.003905 0.736608 -1.469296 73.146910 -0.883903 56.862998 -70.965696 56.299712 -53.631452 0.701716 2.561624 -9.057051 -29.117525 18.087685 -8.682600 7.125000 0.000000 0.000000 -1.789000 -12.565100 -1.357600 
0.117399 18.193507 2.548372 1.501629 -2.131394 -1.654370 -3.361820 6.609873 6.956484 -11.387800 -14.611422 2.291994 -1.369011 1.220867 6.600127 -4.563961 17.721781 -2.843090 0.184800 -2.768800 -7.635800 -2.260584 -6.891209 4.264989 18.789658 19.166388 8.500369 0.067461 -1.587093 9.419427 6.191822 -21.813983 -8.221373 -0.053200 1.488100 -4.092800 2.937075 1.960604 -2.762375 -7.707197 1.995808 15.759188 2.689446 1.278375 -9.089297 -5.178781 -0.634841 -14.777280 10.044935 -1.318196 9.529382 3.711700 -0.220000 3.923700 -4.763170 -0.921308 -0.880074 -78.828223 -7.971925 66.109194 90.794351 -60.475611 -65.242117 0.942393 -0.493214 -16.416540 1.645661 21.053889 0.328100 -7.125000 0.000000 0.000000 -27.292500 49.687700 -3.379600 7.006059 0.737400 -1.446384 73.144690 -0.615705 57.162868 -71.630333 56.512669 -54.313426 0.673709 2.595627 -9.725049 -29.257211 17.880313 -8.600800 7.125000 0.000000 0.000000 -1.914700 -12.812200 -1.443300 
0.115756 18.193314 2.548855 1.501653 -2.276592 -1.677737 -3.363640 6.602347 6.960037 -11.399793 -14.467874 2.233245 -1.359933 1.252664 6.700275 -4.552686 17.678253 -2.906557 0.185700 -2.775200 -7.653600 -2.263712 -6.893306 4.261125 18.805995 19.348201 8.605816 0.073029 -1.572073 9.362082 6.217219 -21.887469 -8.170603 -0.052600 1.480000 -4.070700 2.945416 2.026714 -2.788759 -7.714786 2.080704 15.782604 2.677023 1.323304 -9.076072 -5.203875 -0.679292 -14.884518 10.069685 -1.391181 9.694861 3.716500 -0.249900 3.976700 -4.758393 -0.928718 -0.877291 -78.788085 -7.925110 66.182291 91.483444 -60.517151 -65.801299 0.948491 -0.483309 -17.249406 1.732202 21.372081 0.366000 -7.125000 0.000000 0.000000 -27.389800 49.987100 -3.607000 7.000193 0.744424 -1.422628 73.106626 -0.322893 57.424810 -72.342835 56.740520 -55.045278 0.636568 2.630133 -10.684620 -29.159600 17.630528 -8.422400 7.125000 0.000000 0.000000 -1.887800 -13.131800 -1.410300 
